<?xml version="1.0" encoding="UTF-8" standalone="no"?>
<svg
   width="421"
   height="74"
   viewBox="0 0 421 74"
   fill="none"
   version="1.1"
   id="svg14"
   sodipodi:docname="logo-white.svg"
   inkscape:version="1.1.1 (3bf5ae0d25, 2021-09-20, custom)"
   xmlns:inkscape="http://www.inkscape.org/namespaces/inkscape"
   xmlns:sodipodi="http://sodipodi.sourceforge.net/DTD/sodipodi-0.dtd"
   xmlns="http://www.w3.org/2000/svg"
   xmlns:svg="http://www.w3.org/2000/svg">
  <defs
     id="defs18" />
  <sodipodi:namedview
     id="namedview16"
     pagecolor="#ffffff"
     bordercolor="#666666"
     borderopacity="1.0"
     inkscape:pageshadow="2"
     inkscape:pageopacity="0.0"
     inkscape:pagecheckerboard="0"
     showgrid="false"
     inkscape:zoom="2.8052257"
     inkscape:cx="210.5"
     inkscape:cy="36.895428"
     inkscape:window-width="1920"
     inkscape:window-height="1021"
     inkscape:window-x="1440"
     inkscape:window-y="0"
     inkscape:window-maximized="1"
     inkscape:current-layer="svg14" />
  <path
     d="M59.423 0H13.713C6.139 0 0 6.139 0 13.713V59.423C0 66.997 6.139 73.136 13.713 73.136H59.423C66.997 73.136 73.136 66.997 73.136 59.423V13.713C73.136 6.139 66.997 0 59.423 0ZM62.834 61.179C61.669 60.729 60.397 60.504 59.08 60.504C55.366 60.504 52.062 62.344 50.002 65.158C47.002 62.305 42.95 60.504 38.448 60.504H34.694C30.192 60.504 26.139 62.305 23.14 65.158C21.075 62.344 17.777 60.504 14.062 60.504H10.308V47.374C10.308 56.491 33.872 56.756 36.574 56.756C39.27 56.756 62.834 56.491 62.834 47.374V61.179V61.179ZM62.834 39.872C62.834 48.989 39.258 49.254 36.568 49.254C33.878 49.254 10.302 48.989 10.302 39.872V24.862C10.302 33.979 33.878 34.244 36.568 34.244C39.258 34.244 62.834 33.979 62.834 24.862V39.872ZM36.568 26.736C33.867 26.736 10.302 26.477 10.302 17.36C10.302 8.243 33.866 7.978 36.568 7.978C39.27 7.978 62.834 8.237 62.834 17.354C62.834 26.471 39.269 26.736 36.568 26.736Z"
     fill="black"
     id="path2"
     style="fill:#ffffff" />
  <path
     d="M94 61.9038L100.384 47.3337C105.928 50.6368 113.32 52.7546 119.787 52.7546C125.414 52.7546 127.43 51.5695 127.43 49.5362C127.43 42.082 94.9249 48.0961 94.9249 25.9885C94.9249 14.9776 104.08 6 122.306 6C130.202 6 138.349 7.69379 144.481 11.1659L138.517 25.649C132.722 22.6842 127.262 21.2454 122.138 21.2454C116.342 21.2454 114.495 22.9392 114.495 24.9725C114.495 32.0871 147 26.1576 147 48.0115C147 58.8533 137.845 68 119.619 68C109.79 68.0012 99.88 65.5439 94 61.9038Z"
     fill="black"
     id="path4"
     style="fill:#ffffff" />
  <path
     d="M154 37C154 19.0439 167.953 6 187.001 6C206.048 6 220 19.0427 220 37C220 54.9573 206.048 68 187.001 68C167.953 68 154 54.9561 154 37ZM200.116 37C200.116 27.7677 194.269 22.1778 187.001 22.1778C179.732 22.1778 173.885 27.7677 173.885 37C173.885 46.2323 179.732 51.8222 187.001 51.8222C194.269 51.8222 200.116 46.2323 200.116 37Z"
     fill="black"
     id="path6"
     style="fill:#ffffff" />
  <path
     d="M227 7H255.906C275.51 7 289 18.2095 289 36.5C289 54.7905 275.51 66 255.906 66H227V7ZM255.068 50.4926C263.362 50.4926 269.06 45.519 269.06 36.5012C269.06 27.4822 263.362 22.5098 255.068 22.5098H246.773V50.4939L255.068 50.4926Z"
     fill="black"
     id="path8"
     style="fill:#ffffff" />
  <path
     d="M295 7H324.372C344.293 7 358 18.2095 358 36.5C358 54.7905 344.293 66 324.372 66H295V7ZM323.521 50.4926C331.948 50.4926 337.738 45.519 337.738 36.5012C337.738 27.4822 331.948 22.5098 323.521 22.5098H315.092V50.4939L323.521 50.4926Z"
     fill="black"
     id="path10"
     style="fill:#ffffff" />
  <path
     d="M363 38.8004V6H383.07V38.2037C383.07 47.32 386.557 50.7274 392.169 50.7274C397.782 50.7274 401.269 47.32 401.269 38.2037V6H421V38.8004C421 56.6916 410.284 67 391.999 67C373.714 67 363 56.6916 363 38.8004Z"
     fill="black"
     id="path12"
     style="fill:#ffffff" />
</svg>
