<?xml version="1.0" encoding="utf-8"?>
<!-- Generator: Adobe Illustrator 17.0.0, SVG Export Plug-In . SVG Version: 6.00 Build 0)  -->
<!DOCTYPE svg PUBLIC "-//W3C//DTD SVG 1.1//EN" "http://www.w3.org/Graphics/SVG/1.1/DTD/svg11.dtd">
<svg version="1.1" id="Capa_1" xmlns="http://www.w3.org/2000/svg" xmlns:xlink="http://www.w3.org/1999/xlink" x="0px" y="0px"
	 width="1000px" height="1000px" viewBox="0 0 1000 1000" enable-background="new 0 0 1000 1000" xml:space="preserve">
<g>
	<g>
		<path fill="#FFFFFF" d="M861.26,153.886C766.878,55.37,636.288-0.228,499.856,0.023C224.141-0.324,0.347,222.905,0,498.621
			c-0.172,136.332,55.42,266.802,153.863,361.118c0.287,0.284,0.393,0.713,0.678,0.964c2.891,2.784,6.033,5.142,8.962,7.82
			c8.033,7.14,16.066,14.531,24.528,21.422c4.533,3.571,9.246,7.14,13.888,10.424c7.998,5.962,15.995,11.924,24.348,17.424
			c5.678,3.571,11.533,7.14,17.351,10.711c7.711,4.642,15.388,9.318,23.35,13.566c6.749,3.571,13.637,6.64,20.493,9.889
			c7.498,3.571,14.888,7.14,22.564,10.353c7.675,3.213,15.388,5.713,23.17,8.497s14.495,5.355,21.957,7.64
			c8.426,2.535,17.066,4.498,25.635,6.604c7.14,1.749,14.066,3.749,21.422,5.178c9.853,1.964,19.85,3.213,29.848,4.571
			c6.178,0.858,12.211,2.071,18.457,2.678c16.353,1.607,32.846,2.5,49.483,2.5c16.637,0,33.132-0.893,49.483-2.5
			c6.249-0.607,12.282-1.82,18.457-2.678c9.997-1.358,19.993-2.607,29.848-4.571c7.14-1.429,14.282-3.571,21.422-5.178
			c8.569-2.107,17.208-4.071,25.635-6.604c7.462-2.284,14.673-5.069,21.957-7.64c7.284-2.571,15.566-5.355,23.17-8.497
			c7.604-3.142,15.066-6.82,22.564-10.353c6.855-3.249,13.746-6.32,20.493-9.889c7.962-4.249,15.637-8.926,23.35-13.566
			c5.82-3.571,11.675-6.82,17.351-10.711c8.355-5.498,16.353-11.46,24.348-17.424c4.642-3.571,9.353-6.784,13.888-10.424
			c8.462-6.784,16.495-13.995,24.528-21.422c2.927-2.678,6.069-5.033,8.962-7.82c0.284-0.249,0.393-0.678,0.678-0.964
			C1045.228,669,1052,352.978,861.26,153.886z M781.015,822.358c-6.497,5.713-13.211,11.14-19.993,16.388
			c-3.998,3.071-7.998,6.104-12.104,9.033c-6.462,4.678-13.031,9.104-19.708,13.353c-4.855,3.107-9.817,6.104-14.817,9.033
			c-6.284,3.571-12.675,7.14-19.137,10.711c-5.713,2.927-11.533,5.678-17.386,8.391c-5.853,2.713-12.317,5.604-18.637,8.14
			s-13.031,4.927-19.637,7.14c-6.033,2.071-12.066,4.213-18.173,6.033c-7.14,2.142-14.602,3.891-21.993,5.678
			c-5.784,1.356-11.495,2.891-17.351,4.035c-8.462,1.642-17.102,2.784-25.777,3.962c-4.927,0.642-9.818,1.535-14.782,2.035
			c-13.711,1.32-27.599,2.107-41.63,2.107s-27.919-0.784-41.63-2.107c-4.962-0.5-9.853-1.393-14.782-2.035
			c-8.675-1.178-17.315-2.32-25.777-3.962c-5.855-1.142-11.568-2.678-17.351-4.035c-7.391-1.784-14.746-3.571-21.993-5.678
			c-6.104-1.82-12.14-3.962-18.173-6.033c-6.604-2.284-13.211-4.607-19.637-7.14c-6.426-2.535-12.495-5.32-18.637-8.14
			c-6.142-2.82-11.675-5.462-17.386-8.391c-6.462-3.355-12.853-6.891-19.137-10.711c-4.998-2.927-9.962-5.926-14.817-9.033
			c-6.675-4.249-13.246-8.675-19.708-13.353c-4.106-2.927-8.104-5.962-12.104-9.033c-6.784-5.249-13.495-10.711-19.993-16.388
			c-1.571-1.178-3-2.678-4.533-4.035c1.596-121.452,79.619-228.694,194.687-267.591c57.535,27.369,124.335,27.369,181.87,0
			c115.065,38.898,193.089,146.137,194.687,267.591C783.977,819.681,782.549,821.038,781.015,822.358z M375.358,286.281
			c38.657-68.75,125.726-93.144,194.476-54.487s93.144,125.726,54.487,194.476c-12.826,22.811-31.674,41.659-54.487,54.487
			c-0.178,0-0.393,0-0.607,0.213c-9.468,5.27-19.474,9.508-29.848,12.639c-1.856,0.536-3.571,1.249-5.533,1.713
			c-3.571,0.929-7.32,1.571-10.997,2.213c-6.924,1.211-13.93,1.914-20.957,2.107h-4.071c-7.027-0.192-14.033-0.895-20.957-2.107
			c-3.571-0.642-7.355-1.284-10.995-2.213c-1.893-0.464-3.571-1.178-5.533-1.713c-10.374-3.132-20.38-7.368-29.848-12.639
			l-0.642-0.213C361.095,442.099,336.701,355.03,375.358,286.281z M848.813,747.527L848.813,747.527
			c-22.911-106.863-93.28-197.459-191.151-246.096c80.006-87.152,74.212-222.662-12.941-302.669s-222.663-74.212-302.669,12.941
			c-75.214,81.933-75.214,207.797,0,289.728C244.18,550.071,173.811,640.664,150.9,747.527
			C13.995,554.686,59.34,287.373,252.182,150.467s460.155-91.56,597.06,101.282c51.464,72.492,79.09,159.205,79.046,248.109
			C928.288,588.684,900.499,675.284,848.813,747.527z"/>
	</g>
</g>
</svg>
